<?xml version="1.0" encoding="UTF-8"?>
<!DOCTYPE svg PUBLIC "-//W3C//DTD SVG 1.1//EN" "http://www.w3.org/Graphics/SVG/1.1/DTD/svg11.dtd">
<!-- Creator: CorelDRAW 2019 (64-Bit) -->
<svg xmlns="http://www.w3.org/2000/svg" xml:space="preserve" width="122.851mm" height="122.554mm" version="1.1" style="shape-rendering:geometricPrecision; text-rendering:geometricPrecision; image-rendering:optimizeQuality; fill-rule:evenodd; clip-rule:evenodd"
viewBox="0 0 48252.66 48135.97"
 xmlns:xlink="http://www.w3.org/1999/xlink"
 xmlns:xodm="http://www.corel.com/coreldraw/odm/2003">
 <defs>
  <style type="text/css">
   <![CDATA[
    .fil3 {fill:#EFD426;fill-rule:nonzero}
    .fil1 {fill:#FDF9C4;fill-rule:nonzero}
    .fil2 {fill:white;fill-rule:nonzero}
    .fil0 {fill:#794D1D;fill-rule:nonzero;fill-opacity:0.301961}
   ]]>
  </style>
 </defs>
 <g id="OBJECTS">
  <metadata id="CorelCorpID_0Corel-Layer"/>
  <g id="_2404734611984">
   <path class="fil0" d="M25444.71 70.54c-5921.91,-409.47 -12231.45,944.26 -17002.22,4594.02 -4204.98,3217.04 -6735.89,8089.39 -7738.6,13219.27 -1050.04,5371.44 -663.31,11230.04 1371.56,16328.34 1976,4950.27 5655.57,8993.86 10436.75,11358.39 5317.98,2630.04 11867.86,3141.71 17638.98,1973.01 5158.44,-1044.77 9757.06,-3877.02 12884.31,-8122.77 3179.61,-4317.04 4635.31,-9656.31 5138.68,-14929.52 1140.42,-12951.68 -10330.94,-23563.41 -22729.47,-24420.75z"/>
   <g>
    <path class="fil1" d="M46974.22 23504.85c-1434.6,15429.64 -10515.5,23487.21 -23486.97,23487.21 -15965.42,0 -23487.25,-10515.66 -23487.25,-23487.21 0,-12971.51 7521.83,-23487.17 23487.25,-23487.17 12971.47,0 24688.03,10571.39 23486.97,23487.17z"/>
   </g>
   <path class="fil2" d="M44091.78 22718.83c0,11527.6 -7400.86,21005.91 -20610.23,21659.48 -14121.63,698.78 -20808.82,-10981.8 -20808.82,-22509.32 0,-11527.68 9281.18,-19235.84 20808.82,-19235.84 11527.68,0 20610.23,8558.08 20610.23,20085.68z"/>
   <path class="fil3" d="M43655.26 23286.31c-564.53,5891.39 -2553.1,11829.76 -7111.42,15831.8 -4344.14,3814.06 -10267.23,4909.66 -15886.67,4410.64 -5815,-516.5 -11289.38,-3183.07 -14387.81,-8268.88 -2904.63,-4768.06 -3490.02,-10848.14 -2528.2,-16264.75 938.8,-5287.11 3813.27,-10058 8476.35,-12838.09 5398.46,-3218.61 12662.12,-3632.6 18525.16,-1561.47 7806.12,2757.5 13652.62,10214.99 12912.59,18690.75 -19.48,222.47 495.52,625.57 512.02,437.08 532.32,-6096.42 -2227.26,-11816.6 -6825.52,-15738.08 -4876.7,-4159.07 -11230.78,-5716.73 -17524.22,-4967.59 -5554.08,661.23 -10681.14,3359.82 -13753.83,8120.42 -2938.61,4552.43 -3690.29,10312.87 -3039.98,15610.94 630.05,5133.54 2957.42,10027.25 7062.33,13268.84 4591.71,3626 10845.12,4659.85 16545.07,4011.98 4557.1,-517.91 8840.05,-2511.15 11933.06,-5931.69 3544.3,-3919.71 5108.24,-9211.97 5603.1,-14374.81 21.09,-222.23 -493.91,-627.02 -512.02,-437.08z"/>
   <path class="fil3" d="M23093.22 45112.52c-1.65,0 -3.26,0 -4.87,-0.04 -140.06,-3.22 -279.58,-7.46 -418.54,-12.73 -114.73,-4.4 -204.2,-100.98 -199.84,-215.71 4.44,-114.69 103.65,-202.43 215.67,-199.72 136.96,5.3 274.27,9.43 412.18,12.57 114.73,2.67 205.69,97.8 203.1,212.53 -2.55,113.12 -95.13,203.1 -207.7,203.1zm1385.07 -3.1l0 0c-112.29,0 -204.6,-89.36 -207.7,-202.24 -3.14,-114.73 87.39,-210.29 202.16,-213.39 138.14,-3.69 275.61,-8.52 412.14,-14.34 114.61,-4.52 211.78,84.05 216.54,198.78 4.99,114.69 -84.05,211.63 -198.78,216.5 -138.85,5.97 -278.2,10.76 -418.7,14.61 -1.89,0.08 -3.77,0.08 -5.66,0.08zm-3182.05 -98.7l0 0c-6.36,0 -12.73,-0.27 -19.21,-0.9 -139.51,-12.73 -278.48,-26.59 -416.93,-41.52 -114.06,-12.33 -196.58,-114.85 -184.41,-228.91 12.45,-114.18 114.22,-196.54 228.95,-184.37 136.25,14.69 272.94,28.28 410.25,40.89 114.22,10.41 198.51,111.55 188.1,225.88 -10.02,107.86 -100.55,188.92 -206.76,188.92zm4978.2 -11.12l0 0c-105.81,0 -196.19,-80.44 -206.64,-187.94 -10.96,-114.3 72.66,-215.75 187,-226.79 137.35,-13.2 274.04,-27.45 409.9,-42.89 113.51,-12.1 216.89,69.09 229.73,183.19 13,114.1 -68.97,217.01 -183.19,229.85 -138.02,15.63 -276.87,30.16 -416.65,43.64 -6.76,0.67 -13.39,0.94 -20.15,0.94zm-6763.82 -216.97l0 0c-11.35,0 -22.7,-0.86 -34.09,-2.75 -138.3,-22.9 -276.04,-46.86 -412.96,-71.88 -112.84,-20.62 -187.82,-128.91 -167.12,-241.79 20.7,-112.92 129.77,-187.55 241.79,-167.12 134.8,24.63 270.11,48.15 405.97,70.62 113.39,18.77 189.98,125.73 171.29,238.96 -16.89,101.77 -104.99,173.96 -204.87,173.96zm8547.24 -21.45l0 0c-99.18,0 -187,-71.37 -204.44,-172.51 -19.64,-113.16 56.28,-220.66 169.4,-240.22 135.74,-23.45 270.78,-48.08 404.99,-73.8 112.06,-21.8 221.64,52.16 243.32,164.96 21.64,112.73 -52.24,221.64 -165.08,243.28 -136.68,26.24 -274.16,51.3 -412.45,75.18 -11.9,2.08 -23.84,3.1 -35.74,3.1zm-10310.91 -338.65l0 0c-16.38,0 -33.03,-1.92 -49.53,-6.01 -136.41,-33.35 -271.68,-67.71 -406.48,-103.38 -111.08,-29.34 -177.26,-143.09 -147.88,-254.05 29.34,-110.88 143.28,-177.18 253.97,-147.84 132.33,35 265.36,68.81 399.17,101.49 111.51,27.26 179.69,139.79 152.36,251.3 -23.13,94.93 -108.09,158.48 -201.61,158.48zm12070.29 -39.08l0 0c-92.58,0 -177.02,-62.25 -201.1,-155.97 -28.83,-111.08 38.02,-224.47 149.14,-253.14 133.39,-34.45 265.75,-70.11 397.25,-106.83 110.41,-30.95 225.18,33.54 256.01,144.19 30.99,110.53 -33.54,225.22 -144.07,256.09 -134.13,37.55 -269.17,73.88 -405.26,108.99 -17.32,4.52 -34.92,6.68 -51.96,6.68zm-13800.54 -457.42l0 0c-21.64,0 -43.72,-3.46 -65.36,-10.64 -133.15,-44.03 -265.51,-89.24 -397.01,-135.62 -108.25,-38.18 -165.08,-156.83 -126.94,-265.08 38.18,-108.33 156.72,-165 264.96,-126.94 129.07,45.48 258.99,89.87 389.55,133.07 108.96,36.1 168.07,153.61 131.93,262.61 -28.83,87.27 -110.02,142.62 -197.13,142.62zm15521.15 -67.79l0 0c-85.51,0 -165.63,-53.26 -195.91,-138.41 -38.3,-108.21 18.26,-227.02 126.39,-265.36 129.73,-46.03 258.44,-93.17 386.17,-141.48 107.15,-40.34 227.34,13.59 267.91,120.97 40.61,107.34 -13.51,227.26 -120.97,267.91 -130.28,49.25 -261.67,97.37 -394.03,144.3 -22.98,8.21 -46.54,12.06 -69.56,12.06zm-17205.17 -568.11l0 0c-27.18,0 -54.91,-5.42 -81.46,-16.73 -128.95,-54.99 -257.07,-111.08 -384.41,-168.34 -104.6,-47.05 -151.41,-170.15 -104.32,-274.82 47.09,-104.63 170.23,-151.45 274.82,-104.32 124.86,56.17 250.47,111.19 376.98,165.08 105.7,45.05 154.67,167.12 109.74,272.74 -33.86,78.95 -110.68,126.39 -191.36,126.39zm18871.43 -110.17l0 0c-78.48,0 -153.42,-44.7 -188.61,-120.54 -48.31,-104.2 -2.99,-227.73 101.22,-275.96 124.74,-57.74 248.43,-116.57 371.01,-176.67 102.83,-50.75 227.45,-8.05 277.97,95.13 50.59,103.02 8.09,227.61 -95.01,278.04 -125.29,61.47 -251.81,121.64 -379.3,180.71 -28.28,13.08 -58.01,19.29 -87.27,19.29zm-20495.74 -665.4l0 0c-32.88,0 -66.3,-7.86 -97.41,-24.35 -123.68,-65.83 -246.7,-132.76 -368.58,-200.82 -100.27,-55.93 -136.13,-182.52 -80.4,-282.8 56.05,-100.2 182.4,-136.25 282.8,-80.24 119.64,66.73 240.06,132.29 361.31,196.74 101.49,53.93 139.91,179.69 86.06,281.11 -37.35,70.27 -109.35,110.37 -183.78,110.37zm22090.27 -167.71l0 0c-71.29,0 -140.73,-36.8 -179.42,-102.79 -58.05,-99.06 -24.9,-226.35 74.16,-284.41 118.42,-69.44 235.7,-140.06 352.08,-211.78 97.72,-60.21 225.73,-29.77 286.06,67.79 60.09,97.72 29.77,225.77 -67.91,286.06 -118.81,73.33 -238.84,145.44 -359.98,216.5 -32.99,19.36 -69.25,28.63 -104.99,28.63zm-23641.1 -746.07l0 0c-38.81,0 -78.08,-10.8 -113.12,-33.62 -117.6,-76.35 -233.94,-153.93 -349.65,-232.52 -94.85,-64.53 -119.48,-193.83 -54.95,-288.77 64.57,-94.93 193.91,-119.48 288.77,-54.95 113.28,77.02 227.45,152.91 342.5,227.81 96.19,62.57 123.41,191.32 60.88,287.55 -39.79,61.23 -106.36,94.5 -174.43,94.5zm25146.6 -238.73l0 0c-64.14,0 -127.57,-29.73 -168.3,-85.66 -67.4,-92.85 -46.82,-222.82 45.99,-290.34 110.96,-80.64 220.82,-162.45 329.34,-245.33 91.36,-69.68 221.64,-52.16 291.48,39.24 69.56,91.36 51.96,221.72 -39.24,291.36 -111.23,84.76 -223.68,168.46 -337.2,250.98 -36.8,26.79 -79.58,39.75 -122.07,39.75zm-26610.26 -808.68l0 0c-44.93,0 -90.14,-14.45 -128.28,-44.34 -110.57,-86.88 -220.19,-174.78 -328.71,-263.75 -88.73,-72.74 -101.89,-203.65 -29.07,-292.5 72.78,-88.88 203.65,-101.89 292.54,-28.99 106.36,87.04 213.67,173.17 322.03,258.29 90.26,70.93 105.97,201.57 35.07,291.87 -41.01,52.16 -102.04,79.42 -163.59,79.42zm28011.6 -319.64l0 0c-57.11,0 -114.22,-23.49 -155.22,-69.64 -76.43,-85.7 -68.74,-217.09 16.93,-293.48 102.55,-91.16 203.77,-183.39 303.93,-276.59 84.13,-78.24 215.67,-73.41 293.87,10.57 78.24,84.01 73.33,215.51 -10.53,293.75 -102.59,95.25 -205.97,189.51 -310.68,282.72 -39.79,35.35 -89.04,52.67 -138.3,52.67zm-29378.01 -857.03l0 0c-51.14,0 -102.28,-18.74 -142.62,-56.64 -102.04,-96.35 -203.1,-193.64 -303.1,-291.95 -81.74,-80.48 -82.8,-212.1 -2.44,-293.87 80.36,-81.89 212.18,-83.11 293.91,-2.44 97.96,96.27 196.86,191.52 296.86,285.82 83.62,78.79 87.43,210.29 8.68,293.83 -40.89,43.4 -96.07,65.24 -151.3,65.24zm30661.32 -401.3l0 0c-50.47,0 -101.22,-18.3 -141.28,-55.46 -84.17,-78.08 -89,-209.58 -10.96,-293.75 92.97,-100.12 184.72,-201.3 275.1,-303.46 76.32,-85.86 207.58,-93.75 293.48,-17.6 85.94,76.12 93.79,207.5 17.75,293.36 -92.81,104.48 -186.45,208.05 -281.58,310.49 -41.01,44.11 -96.62,66.42 -152.51,66.42zm-31914.85 -892.77l0 0c-57.38,0 -114.61,-23.68 -155.62,-70.11 -92.85,-104.91 -184.56,-210.8 -275.22,-317.56 -74.16,-87.55 -63.35,-218.7 24.08,-292.97 87.55,-74.16 218.77,-63.47 293.09,24.08 88.61,104.6 178.36,208.17 269.25,310.96 76.08,85.98 68.07,217.4 -17.83,293.44 -39.51,34.96 -88.77,52.16 -137.75,52.16zm33073.81 -481.81l0 0c-44.23,0 -88.61,-13.98 -126.35,-42.93 -91.08,-69.83 -108.25,-200.35 -38.33,-291.4 83.39,-108.72 165.67,-218.34 246.7,-328.83 68.07,-92.5 198.11,-112.37 290.53,-44.46 92.54,68.03 112.41,198.04 44.5,290.61 -82.95,112.77 -166.85,224.67 -252.08,335.7 -40.89,53.34 -102.59,81.3 -164.96,81.3zm-34204.76 -918.7l0 0c-63.9,0 -126.94,-29.3 -167.52,-84.64 -82.95,-112.57 -164.69,-226.04 -245.21,-340.38 -66.03,-93.83 -43.56,-223.45 50.2,-289.59 93.79,-66.34 223.41,-43.56 289.59,50.24 78.87,111.9 158.99,223.06 240.18,333.35 67.91,92.46 48.15,222.58 -44.27,290.57 -37.08,27.34 -80.24,40.46 -122.98,40.46zm35235.47 -557.58l0 0c-38.18,0 -76.59,-10.41 -111.23,-32.33 -96.9,-61.51 -125.57,-189.91 -64.14,-286.84 73.61,-115.99 146.15,-232.68 217.28,-350.12 59.54,-98.08 187.55,-129.3 285.55,-69.83 98.23,59.58 129.34,187.39 69.8,285.51 -72.78,119.83 -146.66,238.88 -221.64,357.15 -39.51,62.37 -106.87,96.46 -175.61,96.46zm-36236.53 -937.04l0 0c-70.23,0 -138.69,-35.51 -177.81,-99.92 -72.55,-119.29 -143.72,-239.36 -213.79,-360.21 -57.66,-99.33 -23.84,-226.51 75.49,-284.09 99.33,-57.62 226.51,-23.72 284.17,75.61 68.46,118.38 138.26,236.02 209.47,352.87 59.54,98.11 28.28,226 -69.83,285.58 -33.7,20.42 -70.9,30.16 -107.7,30.16zm37136.88 -624.12l0 0c-32.33,0 -65.2,-7.66 -96.07,-23.68 -101.61,-53.18 -141.01,-178.75 -87.94,-280.52 63.86,-121.84 126.39,-244.42 187.82,-367.71 51.41,-102.63 176.43,-144.11 278.87,-93.17 102.71,51.3 144.38,176.12 93.24,278.83 -62.8,125.57 -126.67,250.47 -191.36,374.63 -37.2,70.97 -109.58,111.63 -184.56,111.63zm-38002.08 -951.61l0 0c-76.59,0 -150.2,-42.54 -186.49,-115.95 -61.67,-124.9 -122.03,-250.47 -181.3,-376.87 -48.7,-103.93 -4.05,-227.65 99.84,-276.35 103.93,-48.66 227.89,-4.01 276.47,99.92 58.05,123.8 117.32,246.94 177.81,369.4 50.75,102.91 8.52,227.53 -94.46,278.32 -29.65,14.65 -60.88,21.52 -91.87,21.52zm38773.37 -678.99l0 0c-27.18,0 -54.79,-5.34 -81.46,-16.73 -105.54,-44.97 -154.67,-167.12 -109.58,-272.66 53.85,-126.71 106.87,-253.97 158.6,-381.85 43.13,-106.4 164.26,-157.62 270.9,-114.45 106.32,43.17 157.5,164.34 114.45,270.74 -52.75,130.05 -106.64,259.62 -161.55,388.49 -33.82,79.03 -110.57,126.47 -191.36,126.47zm-39499.45 -966.57l0 0c-83.11,0 -161.59,-50.2 -193.68,-132.17 -50.86,-130.13 -100.51,-260.84 -148.98,-392.22 -39.91,-107.7 15.16,-227.18 122.9,-267.05 107.42,-39.67 227.02,15.2 266.97,122.94 47.64,128.95 96.35,257.23 146.27,384.88 41.79,106.91 -10.96,227.49 -117.87,269.28 -24.9,9.74 -50.47,14.34 -75.61,14.34zm40144.22 -718.85l0 0c-22.31,0 -44.78,-3.57 -67.12,-11.15 -108.64,-37.08 -166.57,-155.22 -129.61,-263.86 44.5,-130.44 88.1,-261.35 130.32,-392.81 35.31,-109.27 152.47,-169.28 261.7,-134.01 109.31,35.23 169.25,152.44 133.94,261.63 -43.01,133.62 -87.27,266.85 -132.48,399.45 -29.5,86.37 -110.25,140.77 -196.74,140.77zm-40729.22 -983.86l0 0c-89.71,0 -172.23,-58.41 -199.02,-148.63 -39.94,-133.9 -78.48,-268.34 -115.83,-403.38 -30.6,-110.64 34.21,-225.1 144.78,-255.77 110.68,-30.64 225.18,34.33 255.73,144.93 36.8,132.48 74.55,264.34 113.67,395.68 32.76,109.98 -30.05,225.77 -139.91,258.44 -19.76,5.89 -39.79,8.72 -59.43,8.72zm41250.86 -741.71l0 0c-17.6,0 -35.43,-2.32 -53.3,-7.03 -110.96,-29.46 -177.02,-143.24 -147.64,-254.2 35.31,-132.76 69.4,-265.91 102.59,-399.37 27.57,-111.43 140.42,-179.42 251.81,-151.61 111.35,27.65 179.14,140.38 151.53,251.81 -33.7,135.59 -68.46,270.9 -104.2,405.81 -24.59,93.09 -108.76,154.6 -200.79,154.6zm-41693.04 -1003.49l0 0c-96.23,0 -182.56,-67.2 -203.1,-165.16 -28.83,-136.61 -56.32,-273.72 -82.56,-411.23 -21.64,-112.77 52.24,-221.64 165.08,-243.17 112.84,-21.96 221.52,52.4 243.05,165.12 25.96,135.04 52.87,269.6 81.19,403.77 23.53,112.29 -48.31,222.51 -160.76,246.15 -14.34,3.02 -28.71,4.52 -42.89,4.52zm42097.09 -754.12l0 0c-13.28,0 -26.51,-1.3 -40.06,-3.93 -112.69,-22.11 -186.17,-131.3 -163.98,-243.95 26.51,-135.39 51.96,-271.09 76.59,-407.11 20.42,-112.96 129.61,-187.59 241.4,-167.56 113.12,20.42 188.06,128.52 167.64,241.48 -25.02,138.02 -50.71,275.73 -77.81,413.16 -19.32,99.1 -106.32,167.91 -203.77,167.91zm-42397.36 -1021.05l0 0c-102.83,0 -192.26,-76.47 -205.81,-181.34 -17.71,-138.37 -34.37,-277.1 -49.8,-416.34 -12.57,-114.06 69.56,-216.85 183.62,-229.46 114.34,-13.35 216.77,69.52 229.5,183.7 15.16,136.8 31.38,273.13 48.98,409.07 14.61,113.79 -65.75,217.99 -179.69,232.68 -8.92,1.14 -17.83,1.69 -26.79,1.69zm42688.29 -760.33l0 0c-8.92,0 -18.15,-0.55 -27.18,-1.77 -113.83,-14.96 -193.91,-119.29 -179.03,-233.07 17.87,-136.96 34.88,-273.96 51.14,-411.23 13.39,-114.06 117.44,-195.17 230.6,-182.21 113.9,13.39 195.64,116.65 182.09,230.64 -16.22,139.2 -33.54,278.08 -51.65,416.77 -13.83,104.67 -103.14,180.87 -205.97,180.87zm-42848.62 -1032.87l0 0c-110.02,0 -201.77,-86.17 -207.46,-197.29 -7.03,-139.24 -12.96,-278.87 -17.56,-418.85 -3.81,-114.69 86.06,-210.8 200.79,-214.69 115.16,-2.44 210.68,86.02 214.61,200.75 4.6,137.55 10.41,274.74 17.32,411.7 5.97,114.61 -82.29,212.29 -197.01,218.11 -3.53,0.24 -7.03,0.27 -10.68,0.27zm43030.08 -762.69l0 0c-4.99,0 -9.9,-0.12 -14.89,-0.55 -114.49,-8.09 -200.67,-107.5 -192.58,-222 9.78,-137.55 18.54,-275.33 26.55,-413.24 6.48,-114.65 104.71,-202.75 219.32,-195.6 114.61,6.56 202.16,104.87 195.56,219.44 -8.01,139.75 -17.09,279.42 -26.83,418.77 -7.82,109.47 -99.02,193.17 -207.15,193.17zm-43054.16 -1037.98l0 0c-1.53,0 -3.14,0 -4.75,-0.08 -114.89,-2.63 -205.69,-97.76 -203.1,-212.53 3.1,-140.02 7.58,-279.69 13.12,-418.93 4.48,-114.73 97.96,-202.08 215.95,-199.45 114.61,4.6 203.93,101.3 199.45,215.99 -5.54,136.92 -9.74,274.27 -12.96,411.86 -2.59,113.12 -95.13,203.14 -207.7,203.14zm43129.53 -764.34l0 0c-0.94,0 -1.89,0 -2.71,0 -114.89,-1.57 -206.76,-95.8 -205.15,-210.57 1.77,-137.94 2.71,-275.8 2.71,-413.83 0,-114.81 92.97,-207.86 207.86,-207.86 114.73,0 207.82,93.05 207.82,207.86 0,139.75 -0.94,279.54 -2.67,419.25 -1.65,113.86 -94.34,205.15 -207.86,205.15zm-4.48 -938.41l0 0c-112.18,0 -204.6,-89.36 -207.7,-202.16 -3.77,-137.55 -8.92,-274.47 -15.71,-410.8 -5.54,-114.69 82.84,-212.18 197.45,-217.79 117.05,-7.42 212.29,82.8 217.71,197.37 6.87,139.43 12.18,279.34 16.1,419.87 3.1,114.73 -87.27,210.33 -202.04,213.47 -2,0.04 -3.93,0.04 -5.81,0.04zm-43018.18 -94.58l0 0c-6.64,0 -13.39,-0.35 -20.15,-0.94 -114.38,-11.04 -198.11,-112.57 -187,-226.87 13.51,-139.36 28.12,-278.4 43.83,-416.97 13.12,-114.06 116.22,-195.91 230.16,-182.87 114.06,13.08 195.91,116.03 182.8,230.13 -15.4,136.1 -29.77,272.7 -43.01,409.66 -10.29,107.5 -100.94,187.86 -206.64,187.86zm42882.99 -1699.61l0 0c-103.34,0 -192.93,-76.9 -205.93,-182.13 -17.05,-136.33 -35.43,-272.07 -55.34,-407.11 -16.77,-113.59 61.7,-219.21 175.26,-235.98 113.79,-17.4 219.21,61.78 235.98,175.22 20.31,138.18 39.24,277.02 56.56,416.46 14.18,113.94 -66.57,217.79 -180.52,231.93 -8.68,1.06 -17.32,1.61 -26,1.61zm-42642.53 -84.72l0 0c-11.9,0 -23.8,-0.98 -36.02,-3.14 -113.12,-19.72 -188.73,-127.34 -168.97,-240.42 23.96,-137.94 49.1,-275.49 75.61,-412.49 21.68,-112.73 130.2,-186.53 243.44,-164.69 112.73,21.72 186.45,130.71 164.69,243.44 -26,134.56 -50.63,269.52 -74.27,405.07 -17.6,101.02 -105.42,172.23 -204.48,172.23zm42332.95 -1687.43l0 0c-94.97,0 -180.75,-65.48 -202.55,-161.94 -30.44,-133.86 -62.14,-267.01 -95.4,-399.45 -28.12,-111.31 39.51,-224.31 150.75,-252.24 110.96,-28.2 224.35,39.43 252.24,150.86 34.09,135.59 66.81,271.84 97.8,408.92 25.33,111.9 -44.78,223.29 -156.83,248.66 -15.4,3.5 -30.83,5.18 -45.99,5.18zm-41954.59 -72.58l0 0c-17.2,0 -34.64,-2.16 -51.96,-6.64 -111.23,-28.59 -178.08,-141.87 -149.53,-253.02 34.76,-135.59 71.05,-270.62 108.09,-405.22 30.6,-110.6 145.05,-175.77 255.73,-144.89 110.72,30.56 175.65,145.05 145.09,255.73 -36.57,132.13 -72.15,264.73 -106.36,397.88 -24.08,93.87 -108.52,156.17 -201.06,156.17zm41469.08 -1660.01l0 0c-86.88,0 -167.91,-54.87 -197.01,-141.75 -43.83,-130.05 -88.77,-259.27 -135.31,-387.82 -38.96,-107.97 16.77,-227.1 124.74,-266.14 107.86,-39.24 227.22,16.77 266.18,124.74 47.49,131.54 93.75,263.86 138.41,396.9 36.53,108.76 -22.19,226.63 -130.99,263.16 -21.92,7.38 -44.11,10.92 -66.03,10.92zm-40950.03 -63.75l0 0c-22.47,0 -45.48,-3.73 -68.07,-11.55 -108.41,-37.63 -165.75,-156.05 -128.16,-264.49 45.76,-132.33 92.97,-264.14 141.56,-395.17 39.79,-107.74 159.39,-162.53 266.85,-122.9 107.7,39.79 162.76,159.35 122.86,267.01 -47.37,128.48 -93.64,257.54 -138.57,387.31 -29.77,85.86 -110.41,139.79 -196.46,139.79zm40292.42 -1611.27l0 0c-79.03,0 -154.67,-45.44 -189.43,-122.23 -56.56,-124.98 -114.34,-249.1 -173.49,-372.47 -49.76,-103.46 -6.09,-227.61 97.45,-277.3 103.22,-49.41 227.57,-6.05 277.38,97.49 60.49,126.16 119.64,253.14 177.42,380.95 47.21,104.63 0.94,227.73 -103.81,275.02 -27.73,12.61 -56.83,18.54 -85.51,18.54zm-39630.32 -62.69l0 0c-28.28,0 -56.99,-5.81 -84.6,-18.15 -104.71,-46.74 -151.81,-169.6 -104.99,-274.47 57.11,-128.28 115.55,-255.97 175.37,-382.8 48.7,-103.93 172.66,-148.51 276.43,-99.69 103.81,48.86 148.43,172.66 99.72,276.51 -58.44,124.43 -115.83,249.53 -172.11,375.37 -34.37,77.26 -110.29,123.21 -189.83,123.21zm38810.05 -1536.76l0 0c-72,0 -141.83,-37.35 -180.24,-104.01 -68.34,-118.38 -137.86,-235.86 -208.64,-352.47 -59.54,-98.11 -28.28,-226 69.8,-285.51 98.23,-59.43 226,-28.24 285.55,69.8 72.35,119.25 143.4,239.36 213.24,360.37 57.38,99.45 23.25,226.55 -76.04,283.94 -32.76,18.89 -68.46,27.89 -103.65,27.89zm-38004 -76.12l0 0c-34.09,0 -68.85,-8.48 -100.94,-26.32 -100.12,-55.81 -136.25,-182.4 -80.36,-282.68 68.19,-122.58 137.59,-244.38 208.25,-365.4 58.05,-99.06 185.07,-132.44 284.29,-74.63 99.18,57.89 132.6,185.23 74.71,284.33 -69.29,118.5 -137.23,237.82 -204.08,357.86 -38.14,68.26 -108.8,106.83 -181.85,106.83zm37031.77 -1435.74l0 0c-64.96,0 -128.83,-30.24 -169.4,-87.16 -79.46,-111.43 -160.09,-221.92 -241.95,-331.58 -68.62,-92.03 -49.69,-222.27 42.34,-290.85 91.75,-68.81 222.19,-49.73 290.81,42.26 83.46,111.98 165.99,224.9 247.21,338.77 66.57,93.44 44.89,223.21 -48.47,289.91 -36.65,26.12 -78.75,38.65 -120.54,38.65zm-36085.66 -97.09l0 0c-40.3,0 -80.91,-11.7 -116.89,-36.14 -94.74,-64.69 -119.21,-193.99 -54.56,-288.84 78.91,-115.67 158.99,-230.48 240.18,-344.42 66.73,-93.52 196.46,-115.2 290.14,-48.43 93.36,66.69 115,196.54 48.43,289.98 -79.69,111.47 -158.05,223.84 -235.31,337.12 -40.18,58.99 -105.42,90.73 -172,90.73zm34973.53 -1317.2l0 0c-58.21,0 -116.1,-24.43 -157.27,-72 -89.55,-103.73 -180.24,-206.52 -271.96,-308.33 -76.87,-85.31 -70.11,-216.69 15.28,-293.56 85.23,-76.59 216.65,-69.83 293.48,15.36 93.64,104.01 186.21,208.92 277.69,314.81 75.1,86.88 65.48,218.15 -21.37,293.17 -39.28,33.9 -87.71,50.55 -135.86,50.55zm-33892.23 -121.41l0 0c-46.66,0 -93.52,-15.63 -132.21,-47.6 -88.49,-73.13 -100.94,-204.12 -27.89,-292.62 89.04,-107.66 179.18,-214.41 270.38,-320.19 75.1,-86.84 206.36,-96.54 293.2,-21.56 87,75.02 96.5,206.28 21.52,293.17 -89.32,103.57 -177.53,208.05 -264.69,313.39 -41.12,49.73 -100.39,75.41 -160.33,75.41zm32655.42 -1186.61l0 0c-52.24,0 -104.2,-19.44 -144.5,-58.48 -98.78,-95.44 -198.35,-189.83 -298.78,-283.27 -84.13,-78.16 -89.04,-209.66 -10.8,-293.72 78.2,-84.01 209.58,-88.96 293.6,-10.72 102.59,95.33 204.36,191.59 305.03,288.92 82.4,79.85 84.68,211.43 4.87,293.91 -40.89,42.14 -95.13,63.35 -149.41,63.35zm-31446.78 -144.07l0 0c-53.06,0 -106.24,-20.23 -146.7,-60.6 -81.34,-81.07 -81.58,-212.65 -0.51,-293.91 98.74,-99.1 198.74,-197.21 299.69,-294.3 82.84,-79.61 214.34,-76.94 293.91,5.89 79.58,82.76 76.87,214.34 -5.93,293.83 -98.78,95.05 -196.62,191.01 -293.24,287.94 -40.61,40.81 -93.91,61.15 -147.21,61.15zm30098.79 -1050.9l0 0c-45.99,0 -92.42,-15.24 -130.95,-46.46 -106.64,-86.61 -214.1,-172.19 -322.35,-256.76 -90.38,-70.66 -106.48,-201.3 -35.86,-291.75 70.78,-90.34 201.22,-106.56 291.75,-35.86 110.29,86.17 219.87,173.41 328.55,261.63 89.16,72.39 102.67,203.3 30.28,292.42 -41.01,50.55 -101.06,76.79 -161.43,76.79zm-28769.88 -162.92l0 0c-59.66,0 -118.81,-25.49 -159.94,-74.94 -73.33,-88.33 -61.43,-219.36 26.9,-292.69 107.58,-89.4 216.1,-177.81 326,-265.08 89.71,-71.41 220.54,-56.52 291.99,33.35 71.45,89.83 56.56,220.62 -33.31,292.07 -107.42,85.39 -213.79,171.8 -318.89,259.27 -38.85,32.29 -85.94,48.04 -132.76,48.04zm27325.27 -913.63l0 0c-40.3,0 -81.15,-11.7 -116.89,-36.21 -113.55,-77.45 -227.73,-153.85 -342.62,-229.22 -96.07,-62.92 -122.86,-191.75 -59.94,-287.75 62.92,-96.07 191.75,-122.94 287.78,-59.86 117.09,76.71 233.42,154.6 349.14,233.54 94.74,64.73 119.05,194.03 54.4,288.81 -40.34,58.96 -105.58,90.69 -171.88,90.69zm-25889.33 -171.37l0 0c-66.3,0 -131.38,-31.54 -171.56,-90.26 -64.96,-94.66 -40.85,-224.04 53.73,-288.96 115.12,-79.1 231.5,-157.03 348.94,-233.9 95.8,-63 224.78,-36.06 287.71,60.02 62.77,95.99 35.98,224.82 -60.09,287.75 -114.73,75.22 -228.67,151.53 -341.4,228.87 -35.86,24.71 -76.87,36.49 -117.32,36.49zm24361.13 -783.23l0 0c-34.92,0 -70.11,-8.8 -102.59,-27.34 -119.48,-68.03 -239.47,-134.96 -360.05,-200.79 -100.82,-55.03 -137.9,-181.26 -82.95,-282.01 54.95,-100.71 181.19,-137.86 282.01,-82.91 122.86,67.05 245.17,135.27 366.69,204.56 99.84,56.83 134.49,183.78 77.65,283.5 -38.14,67.24 -108.52,104.99 -180.75,104.99zm-22832.07 -165.87l0 0c-72.82,0 -143.44,-38.37 -181.58,-106.36 -56.05,-100.12 -20.31,-226.79 79.81,-282.87 121.8,-68.26 244.66,-135.39 368.34,-201.34 101.49,-54.36 227.34,-15.71 281.15,85.51 54.16,101.26 15.71,227.18 -85.51,281.19 -121.25,64.73 -241.67,130.44 -361,197.29 -32.09,17.99 -66.85,26.59 -101.22,26.59zm21232.62 -663.24l0 0c-29.5,0 -59.51,-6.36 -88.06,-19.72 -124.35,-58.37 -249.41,-115.63 -374.82,-171.76 -104.87,-46.9 -151.69,-169.83 -104.87,-274.55 46.82,-104.87 169.68,-151.85 274.55,-104.87 127.73,57.11 254.79,115.4 381.58,174.74 103.93,48.78 148.7,172.51 100,276.43 -35.43,75.45 -110.13,119.72 -188.37,119.72zm-19625.08 -145.76l0 0c-79.46,0 -155.11,-45.68 -189.75,-122.66 -47.05,-104.71 -0.39,-227.73 104.2,-274.82 127.22,-57.15 255.46,-113.24 384.45,-168.34 105.66,-44.85 227.61,4.01 272.78,109.62 45.05,105.62 -4.05,227.73 -109.62,272.78 -126.51,54.01 -252.36,108.99 -377.1,165.08 -27.61,12.45 -56.56,18.34 -84.96,18.34zm17965.61 -554.91l0 0c-24.35,0 -49.25,-4.32 -73.33,-13.47 -128.55,-48.43 -257.5,-95.76 -387,-141.83 -108.01,-38.53 -164.41,-157.42 -125.84,-265.59 38.41,-108.05 157.34,-164.49 265.47,-125.96 131.81,47.01 263.2,95.09 394.03,144.5 107.46,40.46 161.59,160.41 121.09,267.79 -31.38,83.27 -110.53,134.56 -194.42,134.56zm-16294.52 -112.84l0 0c-85.78,0 -166.14,-53.46 -196.19,-139 -38.02,-108.25 18.93,-226.9 127.22,-265 131.38,-46.19 263.71,-91.32 396.86,-135.43 108.64,-36.33 226.51,22.98 262.65,131.93 36.14,108.92 -23.02,226.55 -131.93,262.65 -130.71,43.28 -260.6,87.59 -389.71,132.99 -22.86,8.05 -46.15,11.86 -68.89,11.86zm14585.65 -456.09l0 0c-19.09,0 -38.57,-2.71 -58.05,-8.33 -131.81,-38.3 -264.02,-75.37 -396.46,-111.23 -110.96,-29.97 -176.47,-144.11 -146.43,-254.87 30.05,-110.8 144.78,-176.35 254.95,-146.31 134.88,36.49 269.52,74.27 403.77,113.24 110.41,32.01 173.72,147.29 141.79,257.5 -26.51,90.93 -109.47,150 -199.57,150zm-12865.27 -72.11l0 0c-91.99,0 -176.16,-61.67 -200.79,-154.87 -29.22,-110.96 36.8,-224.71 147.88,-254.01 134.64,-35.59 270.23,-70.07 406.36,-103.38 111.78,-27.53 224.08,41.01 251.41,152.51 27.22,111.51 -41.12,224 -152.63,251.3 -133.7,32.72 -266.85,66.54 -399.06,101.45 -17.71,4.75 -35.59,6.99 -53.18,6.99zm11117.66 -361.59l0 0c-13.79,0 -28,-1.41 -42.18,-4.32 -134.41,-27.81 -269.01,-54.32 -404.05,-79.69 -112.88,-21.17 -187.04,-129.85 -165.91,-242.62 21.37,-112.8 129.61,-186.68 242.73,-165.91 137.23,25.77 274.43,52.87 411.35,81.07 112.33,23.25 184.72,133.23 161.59,245.6 -20.31,98.23 -106.91,165.87 -203.53,165.87zm-9361.14 -31.11l0 0c-98.35,0 -185.78,-70.11 -204.16,-170.23 -20.86,-112.84 53.85,-221.25 166.69,-242.07 136.92,-25.26 274.43,-49.45 412.84,-72.55 113,-19.13 220.27,57.58 239.12,170.86 18.93,113.2 -57.54,220.27 -170.78,239.16 -135.86,22.66 -271.17,46.46 -405.81,71.29 -12.73,2.4 -25.45,3.53 -37.9,3.53zm7585.03 -263l0 0c-8.64,0 -17.32,-0.51 -26.12,-1.61 -136.13,-16.97 -272.39,-32.68 -408.8,-47.09 -114.06,-12.02 -196.74,-114.41 -184.84,-228.52 12.18,-114.18 113.94,-197.37 228.71,-184.84 138.81,14.65 277.77,30.64 416.5,48.04 113.94,14.18 194.7,118.11 180.48,231.97 -13.24,105.15 -102.83,182.05 -205.93,182.05zm-5804.43 0l0 0c-104.44,0 -194.3,-78.48 -206.21,-184.68 -12.84,-114.06 69.29,-216.93 183.35,-229.69 138.14,-15.51 277.1,-29.89 416.5,-43.36 114.61,-10.57 215.83,72.66 226.9,186.92 10.96,114.26 -72.78,215.83 -187,226.87 -137.31,13.2 -274.12,27.45 -410.13,42.69 -7.86,0.86 -15.71,1.26 -23.41,1.26zm1794.81 -140.02l0 0c-110.41,0 -202.43,-87 -207.58,-198.43 -5.15,-114.69 83.62,-211.86 198.39,-217.05 138.85,-6.32 278.2,-11.51 418.38,-15.83 116.1,-4.28 210.57,86.65 214.06,201.41 3.53,114.73 -86.61,210.6 -201.34,214.1 -138.18,4.2 -275.53,9.43 -412.45,15.59 -3.26,0.12 -6.36,0.2 -9.47,0.2zm2215.63 -9.9l0 0c-2.99,0 -5.97,-0.04 -8.92,-0.2 -137.08,-5.81 -274.16,-10.29 -411.12,-13.47 -114.73,-2.63 -205.66,-97.76 -202.95,-212.57 2.71,-114.73 93.91,-205.54 212.57,-202.98 139.79,3.18 279.42,7.82 419.05,13.75 114.77,4.87 203.81,101.77 198.94,216.5 -4.75,111.63 -96.78,198.98 -207.58,198.98z"/>
  </g>
 </g>
</svg>
