<?xml version="1.0" encoding="UTF-8"?>
<!DOCTYPE svg PUBLIC "-//W3C//DTD SVG 1.1//EN" "http://www.w3.org/Graphics/SVG/1.1/DTD/svg11.dtd">
<!-- Creator: CorelDRAW 2019 (64-Bit) -->
<svg xmlns="http://www.w3.org/2000/svg" xml:space="preserve" width="88.3608mm" height="86.2295mm" version="1.1" style="shape-rendering:geometricPrecision; text-rendering:geometricPrecision; image-rendering:optimizeQuality; fill-rule:evenodd; clip-rule:evenodd"
viewBox="0 0 2065.62 2015.8"
 xmlns:xlink="http://www.w3.org/1999/xlink"
 xmlns:xodm="http://www.corel.com/coreldraw/odm/2003">
 <defs>
  <style type="text/css">
   <![CDATA[
    .fil2 {fill:#794D1D;fill-rule:nonzero}
    .fil0 {fill:#EFD426;fill-rule:nonzero}
    .fil1 {fill:#FDF9C4;fill-rule:nonzero}
   ]]>
  </style>
 </defs>
 <g id="OBJECTS">
  <metadata id="CorelCorpID_0Corel-Layer"/>
  <g id="_2404731414480">
   <g>
    <path class="fil0" d="M964.56 1405.93c45.18,-2.68 89.1,0.41 133.79,6.67 47.11,6.59 147.48,20.11 194.73,23.62 32.29,2.39 6.69,-21.33 21.54,-46.26 8.49,-14.23 -41.52,-61.31 -74,-63.72 -42.93,-3.19 -21.38,-15.13 -64.07,-21.74 -48.72,-7.53 -97.04,-11.04 -146.39,-10.23 -87.48,1.44 -171.58,19.09 -252.02,49.82 -50.67,4.2 -111.43,103.63 -57.92,110.02 38,4.53 78.15,-21.67 115.01,-30.53 42.25,-10.17 85.87,-15.07 129.33,-17.66z"/>
    <path class="fil0" d="M1343.39 1574.12c-39.34,-6.98 -78.6,-24.55 -117.35,-35.62 -44.25,-12.64 -88.54,-20.39 -134.22,-23.02 -80.96,-4.66 -160.44,10.43 -237.86,41.54 -47.23,1.35 -113.42,116.58 -64.63,128.19 34.65,8.23 74.38,-20.36 109.33,-28.34 40.06,-9.15 80.86,-11.86 121.27,-11.8 42.01,0.07 82.27,7.01 122.91,17.81 42.86,11.38 85.6,31.14 128.91,38.82 29.58,5.24 56.95,-21.34 73.2,-50.26 9.27,-16.51 28.2,-72.05 -1.56,-77.33z"/>
    <path class="fil0" d="M1015.91 1827.46c-61.26,-3.68 -121.67,2.38 -181.01,16.87 -25.26,6.17 60.82,111.93 104.41,112.29 45.3,0.37 176.61,29.8 132.69,18.7 -2.92,-0.74 113.23,-116.03 133.46,-110.1 -8.83,-2.83 -34.15,-10.93 -44.63,-13.77 -47.82,-12.95 -95.63,-21.03 -144.91,-23.99z"/>
    <path class="fil0" d="M1205.6 1865.24c-0.05,-0.02 -0.11,-0 -0.15,-0.02 3.7,1.19 4.57,1.47 0.15,0.02z"/>
   </g>
   <g>
    <path class="fil0" d="M0.29 1314.45c0,0 40.96,319.92 558.86,-71.62 17.18,-12.99 77.69,-12.45 95.94,-27.04 33.83,-27.06 26.72,-71.26 64.38,-104.21 45.66,-39.95 94.2,-84.39 145.8,-133.76l20.03 -220.17c0,0 -903.61,158.96 -885.02,556.8z"/>
    <path class="fil0" d="M1180.32 757.65l20.03 220.17c51.6,49.37 100.15,93.81 145.8,133.76 37.66,32.95 30.55,77.15 64.38,104.21 18.25,14.59 78.76,14.05 95.94,27.04 517.9,391.54 558.86,71.62 558.86,71.62 18.6,-397.83 -885.01,-556.8 -885.01,-556.8z"/>
   </g>
   <path class="fil1" d="M1150.11 1219.83c-8.12,-5.3 -15.9,-10.94 -24.73,-15.21 7.42,-4.57 16.04,-7.7 23.66,-12.18 54.63,-32.14 107.03,-76.44 130.63,-132.13 10.2,-24.07 12.03,-57.8 13.01,-83.63 1.13,-29.7 0.16,-62.95 -6.34,-92.04 -8.58,-38.43 -28.87,-71.4 -56.17,-99.4 -17.57,-18.01 -34.86,-38.55 -58.26,-49.21 -18.69,-8.52 -37.3,-16.67 -57.55,-20.62 -22.1,-4.31 -44.31,-3.6 -66.68,-3.6 -17.8,0.01 -35.62,0.87 -53.24,3.42 -58.96,8.54 -113.4,38.02 -150.53,84.36 -39.48,49.28 -63.46,108.11 -58.97,172.33 1.22,17.72 1.65,39.08 7.03,56.07 22.01,69.55 94.07,140.27 169.99,174.77 -7.36,-3.35 -33.46,11.63 -39.43,15.49 -12.95,8.35 -20.4,12.2 -30.93,22.72l258.5 -21.12z"/>
   <path class="fil2" d="M1894.42 1033.39c-86.09,-70.87 -184.63,-124.84 -290.45,-160.07 -100.07,-33.31 -204.86,-44.79 -306.24,-71.22 -10.2,-16.32 -22.44,-31.97 -36.89,-46.8 -2.47,-2.55 -4.95,-5.14 -7.44,-7.76 -6.37,-6.68 -13.11,-13.68 -20.45,-20.49 2.3,-3.82 4.37,-7.57 6.09,-10.87 0.96,-1.82 1.81,-3.55 2.64,-4.88 25.91,-42.3 37.74,-90.31 32.46,-131.69 -2.05,-16.21 -9.04,-31.5 -14.65,-43.79 -1.26,-2.75 -2.46,-5.4 -3.53,-7.9 -16.31,-38.31 -45.43,-71.5 -81.99,-93.45 -16.22,-9.74 -33.49,-17.04 -51.31,-21.69l-4.92 -1.3c-13.83,-3.68 -30.32,-7.95 -46.43,-8.33 -32.35,-0.75 -63.21,5.89 -88,11.24 -32.28,6.95 -65.65,22.69 -89.3,42.1 -33.61,27.6 -62.51,75.02 -71.89,117.98 -5.15,23.55 -1.92,43.9 0.93,61.85l1.01 6.48c3.33,21.87 9.17,40.49 17.87,56.95 4.78,8.99 10.71,17.59 17.56,25.8 -18.22,13.56 -34.72,29.37 -49.04,47.25 -6.74,8.42 -12.96,17 -18.74,25.69 -105.61,29.12 -215.37,40.04 -319.95,74.86 -105.82,35.23 -204.35,89.2 -290.45,160.07 -67.71,55.73 -159.57,148.2 -157.48,243.48 2.13,97.27 84.92,163.89 175.71,178.1 96.97,15.18 188.01,-41.81 248.63,-112.43 14.74,-17.17 26.87,-36.73 38.12,-56.3 5.31,-9.26 10.31,-18.82 14.95,-28.43 -5.86,12.16 10.33,9.92 21.8,14.23 49.27,18.53 93.45,36.42 144.8,13.99 66.42,-29 69.36,-115.77 51.37,-174.76 -12.89,-42.27 -65.69,-118.3 -105.7,-55.88 -24.16,37.7 -31.64,114.67 32.33,78.69 15.06,-8.46 20.07,-42.28 -3.51,-29.02 -29.93,16.83 -16.63,-39.54 -4.67,-38.58 13.65,1.09 25.93,21.97 32.22,31.43 14.88,22.39 23.22,47.29 27.12,73.72 8.23,55.86 -19.66,95.22 -80.12,89.1 -38.63,-3.92 -70.68,-29.32 -108.73,-33.22 -17.86,-1.83 -29.69,20.65 -35.93,33.6 -18.4,38.17 -44,72.06 -75.76,100.01 -73.83,64.99 -176.99,78.98 -262.02,28.37 -33.06,-19.68 -56.81,-50.29 -71.28,-85.46 -22.42,-54.51 5.76,-109.23 37.71,-152.69 52.89,-71.93 126.48,-127.07 202.81,-171.81 79.45,-46.57 167.57,-77.7 256.62,-99.99 69.41,-17.38 140.5,-26.56 209.91,-43.61 -21.71,44.59 -31.36,91.66 -28.06,138.94 0.19,2.77 0.37,5.65 0.55,8.57 1.06,17.9 2.28,38.19 8.39,57.45 18.14,57.31 63.95,115.52 122.28,158.86 -3.8,3.05 -7.77,6.56 -12.03,10.83 -2.33,2.31 -7.6,6.14 -12.27,9.52 -8.75,6.33 -18.66,13.52 -26.84,22.69 -22.73,25.43 -40.66,49.92 -54.8,74.88 -29.27,51.67 -44.9,111.82 -47.8,183.87 -2.69,66.41 -0.05,122.7 21.42,197.98 21.83,76.56 64.89,151.43 121.23,210.84 17.99,18.97 39.67,40.9 64.08,59.67 11.98,9.22 27.29,16.33 40.81,22.6 3.06,1.41 5.95,2.74 8.53,4 1.41,0.69 3.11,1.58 4.96,2.55 15,7.82 29.75,14.95 45.23,16.36l0.02 0c2.57,0.23 5.03,0.29 7.42,0.21 18.37,-0.63 32.96,-11.36 44.69,-20 1.51,-1.12 2.87,-2.15 3.63,-2.66 10.96,-6.7 20.03,-12.49 28.59,-18.23 21.21,-14.29 39.61,-28.64 56.29,-43.88 34.6,-31.65 64.79,-70.07 94.99,-120.9l2.26 -3.81c14.52,-24.42 29.54,-49.67 41.77,-76.51 33.35,-73.28 45.09,-134.95 40.47,-212.85 -1.19,-20.26 -3.63,-40.48 -7.25,-60.12 -6.37,-34.56 -14.7,-74.65 -32.95,-113.15 -17.95,-37.82 -43.32,-70.38 -68.06,-99.93 -9.08,-10.86 -20.2,-23.48 -33.57,-35.74 55.35,-38.57 94.74,-83.35 114.92,-130.95 12.8,-30.2 15.16,-66.79 16.38,-98.72 1.51,-39.77 -0.96,-74.43 -7.34,-103.01 -2.81,-12.58 -6.8,-24.83 -11.71,-36.81 65.93,15.42 133.19,24.61 198.96,41.07 89.05,22.29 177.17,53.42 256.62,99.99 76.33,44.73 149.93,99.88 202.82,171.81 31.95,43.46 60.13,98.18 37.71,152.69 -14.46,35.18 -38.21,65.78 -71.27,85.46 -85.03,50.61 -188.19,36.62 -262.02,-28.37 -31.76,-27.95 -57.36,-61.84 -75.76,-100.01 -6.24,-12.95 -18.07,-35.43 -35.93,-33.6 -38.05,3.9 -70.1,29.3 -108.73,33.22 -60.46,6.13 -88.35,-33.24 -80.12,-89.1 3.9,-26.43 12.23,-51.34 27.12,-73.72 6.3,-9.47 18.57,-30.34 32.22,-31.43 11.96,-0.96 25.26,55.41 -4.67,38.58 -23.58,-13.26 -18.57,20.55 -3.51,29.02 63.97,35.98 56.49,-40.99 32.33,-78.69 -40.02,-62.42 -92.81,13.6 -105.7,55.88 -17.99,58.99 -15.04,145.75 51.38,174.76 51.35,22.42 95.53,4.54 144.8,-13.99 11.48,-4.31 27.66,-2.08 21.8,-14.23 4.64,9.61 9.64,19.17 14.95,28.43 11.24,19.57 23.38,39.13 38.12,56.3 60.62,70.62 151.66,127.61 248.63,112.43 90.8,-14.21 173.58,-80.82 175.71,-178.1 2.09,-95.28 -89.78,-187.75 -157.48,-243.48zm-605.26 -51.28l0 0c-0.97,25.48 -2.76,58.76 -12.84,82.5 -23.27,54.93 -74.97,98.63 -128.84,130.34 -7.51,4.42 -16.04,7.51 -23.35,12.02 8.71,4.22 16.39,9.77 24.4,15.01 21.06,13.77 38.32,31.89 54.06,50.7 23.4,27.96 45.94,57.07 61.36,89.58 15.29,32.21 22.78,66.7 29.12,101.16 3.26,17.76 5.45,35.87 6.52,54.13 4.25,71.8 -6.51,124.75 -36.19,189.95 -11.7,25.69 -26.81,50.77 -41.31,75.16 -23.64,39.77 -50.98,77.74 -85.9,109.67 -15.71,14.37 -32.75,27.4 -50.61,39.41 -8.72,5.87 -17.65,11.5 -26.62,17 -6.01,3.66 -20.05,15.93 -27.08,16.16 -10.1,0.35 -27.98,-10.28 -36.88,-14.62 -12.05,-5.86 -30.9,-13.67 -41.38,-21.73 -21.08,-16.21 -40.26,-35.4 -58.32,-54.44 -50.91,-53.68 -89.9,-121.3 -109.63,-190.49 -18.76,-65.81 -22.27,-114.71 -19.55,-182 2.29,-56.43 13.34,-112.18 41.71,-162.25 13.5,-23.84 30.31,-45.86 48.78,-66.53 9.4,-10.52 26.87,-20.01 36.9,-30.02 10.39,-10.37 17.74,-14.16 30.51,-22.4 5.48,-3.53 28.01,-16.41 36.97,-15.53l0.26 -0.57c-74.27,-34.29 -144.47,-103.49 -166.02,-171.6 -5.31,-16.75 -5.73,-37.82 -6.94,-55.3 -4.43,-63.36 19.23,-121.39 58.16,-170 36.63,-45.71 90.35,-74.79 148.5,-83.22 17.4,-2.52 34.99,-3.36 52.53,-3.37 11.65,-0 23.25,-0.15 34.82,0.29 0.02,0.02 0.05,0.03 0.07,0.06 2.4,0.46 4.79,1.03 7.18,1.57 8.34,0.59 16.68,1.23 25.02,1.96 19.48,3.99 37.44,11.8 55.46,20.01 23.1,10.53 40.15,30.79 57.47,48.55 26.95,27.62 46.95,60.15 55.42,98.05 6.41,28.71 7.37,61.5 6.25,90.8z"/>
   <g>
    <g>
     <path class="fil2" d="M1128.49 1206.03c-38.07,-4.53 -76.38,-6.85 -115.33,-5.6 -24.54,0.79 -49.06,3.81 -73.31,8.06 -7.69,3.68 -14.98,7.97 -17.79,9.78 -13,8.39 -20.47,12.25 -31.05,22.8 -10.21,10.19 -27.99,19.84 -37.55,30.55 -18.8,21.03 -35.9,43.44 -49.64,67.7 -6.88,12.15 -12.77,24.63 -17.76,37.38l1.31 -0.33c22.36,-6 42.72,-18.45 64.23,-27.1 33.35,-13.41 71.67,-15.58 107.25,-17.61 73.1,-4.15 144.31,10.15 215.52,24.73 0.58,0.12 1.18,0.14 1.76,0.23 6.72,3.11 14.46,4.99 22.94,5.5 22.62,1.35 51.24,12.2 75.28,19.76 0.66,0.21 1.34,0.38 2.01,0.55 -2.52,-6.68 -5.29,-13.28 -8.38,-19.79 -15.7,-33.08 -38.63,-62.71 -62.44,-91.15 -16.02,-19.14 -33.57,-37.58 -55.01,-51.59 -7.29,-4.76 -14.3,-9.78 -22.03,-13.86z"/>
     <path class="fil2" d="M1299.69 1477.96c-19.34,-5.79 -38.62,-11.63 -57.77,-16.42 -54.2,-13.54 -108.35,-22.19 -164.09,-25.74 -98.79,-6.28 -195.4,7.26 -289.17,36.88 -8.28,0.06 -17,2.49 -25.67,6.62 -0.75,8.35 -1.28,16.73 -1.62,25.13 -1.38,34.04 -1.19,63.45 1.7,92.66 27.72,-6.69 55.93,-18.99 82.09,-23.48 48.65,-8.37 98.34,-10.28 147.61,-9.4 51.21,0.91 100.44,8.66 150.21,20.29 51.4,12 102.82,32.06 154.66,40.92 6.89,-32.67 8.89,-66.02 6.6,-104.76 -0.85,-14.35 -2.37,-28.61 -4.54,-42.68z"/>
     <path class="fil2" d="M1267.9 1712.86c-61.14,-18.33 -123.33,-30.89 -188.96,-33.38 -92.29,-3.5 -206.46,-14.6 -293.28,24.54 11.98,36.98 29.26,73.27 50.76,107.04 17.18,-1.58 34.33,-2.91 51.64,-3.64 49.05,-2.06 98.3,0.25 147.33,2.1 53.84,2.04 105.97,14.63 156.89,31.28 11.92,-16.24 22.85,-33.15 33.09,-50.38 14.75,-24.81 30.13,-50.33 42.04,-76.48l0.49 -1.08z"/>
    </g>
    <path class="fil2" d="M1114.95 1921.48c-14.89,-3.42 -29.93,-6.12 -45.27,-8.26 -41.64,-5.81 -99.91,-19.84 -140.47,-5.35 -2.94,1.05 -5.86,2.24 -8.74,3.55 10.13,9.67 20.66,18.96 31.71,27.45 10.66,8.2 29.85,16.15 42.11,22.11 9.06,4.42 27.26,15.23 37.54,14.88 7.15,-0.23 21.44,-12.71 27.55,-16.44 9.14,-5.6 18.22,-11.32 27.09,-17.3 9.76,-6.56 19.29,-13.43 28.49,-20.65z"/>
   </g>
   <path class="fil2" d="M1243.81 77.44c-24.14,12.05 -43.92,80.71 -1.68,74.54 45.83,-6.7 64.79,-74.28 53.69,-114.97 -1.47,-5.36 -5.31,-11.17 -8.1,-15.95 -2.64,-4.53 -5.64,-8.94 -9.46,-12.57 -7.09,-6.73 -16.09,-9 -25.68,-8.4 -7.73,0.48 -15.3,1.63 -22.5,4.61 -5.64,2.33 -11.13,5.04 -16.25,8.37 -10.4,6.78 -18.56,16.04 -25.22,26.44 -6.63,10.38 -12.41,21.31 -17.03,32.74 -4.55,11.25 -7.72,22.9 -11.03,34.56 -5.19,18.23 -9.28,36.77 -14.28,55.05 -6.63,24.27 -13.67,48.54 -21.19,72.55 -6.16,19.68 -17.16,60.09 -17.16,60.09 -5.5,-18.58 -9.91,-37.13 -12.32,-56.39 -2.47,-19.67 -4.61,-39.29 -8.64,-58.73 -5.65,-27.31 -12.26,-54.63 -19.76,-81.48 -2.16,-7.73 -4.45,-15.43 -6.88,-23.08 -0.85,-2.67 -2.38,-3.98 -4.25,-4.38 -3.37,-9.17 -23.73,1.97 -28.1,14.63 -7.38,21.36 -12.64,43.91 -17.43,65.98 -4.94,22.8 -8.82,45.81 -13.03,68.75 -2.44,13.3 -4.97,26.58 -7.5,39.85 -2.38,12.56 -2.74,25.44 -5.44,37.94 -6.51,-25.09 -19.02,-49.87 -26.05,-72.96 -50.52,-166.16 -98.6,-227.92 -137.39,-215.94 -42.49,13.14 -63.55,81.41 -28.69,117.28 27.64,28.45 69.39,6.74 57.4,-34.66 -3.09,-10.63 -16.68,-0.86 -23.66,11.16 -5.61,-3.4 -10.11,-8.25 -13.36,-14.69 -4.16,-8.35 -6.43,-17.21 -6.82,-26.55 0.74,-10.84 13.42,-20.59 24.8,-18.01 4.31,0.97 9.37,4.51 13.07,6.86 4.21,2.67 8.06,5.85 11.26,9.67 7.84,9.34 11.31,21.47 13.57,33.22 1.58,8.21 2.55,16.51 3.62,24.79 1.26,9.69 2.2,19.42 2.69,29.17 1.18,23.26 -0.49,46.63 -2.75,69.77 -2.2,22.6 -3.56,45.19 -5.06,67.84 -1.02,15.49 -4,33.19 -8.81,48.15 -2.5,7.74 -7.19,16.16 -12.8,22.06 -5.86,6.14 -9.37,6.35 -16.21,10.76 -3.13,2.02 -6.18,7.89 -8.05,11.07 -1.8,3.08 -3.64,6.7 -3.79,10.35 -0.22,5.32 5.9,9.39 11.08,7.23 9.21,-3.84 18.77,-5.55 28.36,-8.08 8.36,-2.2 16.73,-4.36 25.13,-6.41 16.86,-4.14 33.81,-7.89 50.88,-11.02 34.83,-6.4 70.06,-9.98 105.41,-11.75 22.94,-1.15 45.84,-1.89 68.82,-1.49 6.75,0.11 13.5,0.34 20.25,0.46 12.39,0.21 24.84,0.46 37.17,1.8 4.12,0.45 8.8,0.51 11.03,4.64 2.87,5.31 0.11,11.63 0.1,17.16 -0.03,16.95 21.89,-0.23 27.75,-14.57 0.66,-1.62 19.45,5.87 21.41,6.65 3.8,1.5 11.52,0.23 15.54,-0.31 3.62,-0.48 7.63,-1.4 10.18,-4.23 2.41,-2.68 2.78,-6.34 2.57,-9.79 -0.32,-5.41 -1.04,-10.98 -4.64,-15.29 -4.03,-4.81 -10.73,-7.73 -16.51,-9.8 -2.3,-0.82 -26.42,-6.46 -26.43,-6.15 1.44,-40.61 4.65,-80.84 3.96,-121.9 -0.85,-50.45 -8.63,-100.2 0.65,-149.69 13.95,-23.77 31.81,-37.28 51.01,-8.68 7.59,11.3 8.88,27.16 8.33,40.57 -0.32,8.05 -1.95,18.06 -7.57,24 -16.34,17.3 -7.8,-6.78 -22.44,0.54 12.53,-6.26 24.49,-43.48 4.23,-33.35zm-356.03 262.73l0 0c11.88,-55.92 13.9,-119.41 16.37,-177.04 6.79,20.53 46.71,129.89 53.53,165.03 -23.65,2.29 -47.32,5.76 -69.91,12zm110.04 -15.08l0 0c13.19,-22.21 33.25,-155.79 43.02,-195.22 8.51,31.99 15.14,65.37 21.99,97.23 4.17,19.39 13.13,81.1 16.43,92.74 -15.7,0.81 -31.38,1.91 -46.98,3.02 -11.21,0.81 -22.76,1.48 -34.46,2.22zm123.61 -6.45l0 0c10.37,-18.79 15.63,-41.04 22.19,-61.76 11.86,-37.47 22.72,-75.21 33.56,-113.01 0.48,17.52 1.54,35.23 2.4,53.37 2,41.72 -0.44,82.94 -2.23,124.29 -18.52,-2.12 -37.18,-2.93 -55.92,-2.91z"/>
   <g>
    <path class="fil0" d="M904.16 163.14c-2.47,57.62 -4.5,121.12 -16.37,177.04 22.59,-6.24 35.07,-8.51 58.71,-10.8 -6.82,-35.14 -20.22,-64.95 -29.36,-97.71 -5.57,-19.99 -6.19,-47.99 -12.98,-68.52z"/>
    <path class="fil0" d="M1062.83 227.11c-6.85,-31.86 -13.48,-65.24 -21.99,-97.23 -9.77,39.43 -12.89,95.5 -18.76,134.77 -4.05,27.23 0.64,37.5 -12.56,59.71 11.7,-0.73 11.55,-0.67 22.76,-1.48 15.6,-1.11 31.28,-2.21 46.98,-3.02 -3.3,-11.64 -7.54,-22.94 -9.13,-35.18 -2.53,-19.56 -3.12,-38.17 -7.3,-57.56z"/>
    <path class="fil0" d="M1179.57 197.26c-0.86,-18.15 -0.38,-0.63 -0.86,-18.15 -10.84,37.79 -15.98,46.69 -27.84,84.16 -6.56,20.71 -19.07,36.58 -29.45,55.37 18.73,-0.03 37.39,0.78 55.92,2.91 1.79,-41.35 4.23,-82.57 2.23,-124.29z"/>
   </g>
  </g>
 </g>
</svg>
